<svg width="15" height="18" viewBox="0 0 15 18" fill="none" xmlns="http://www.w3.org/2000/svg">
<path d="M11.8035 16.6647C10.8882 17.5442 9.88876 17.4054 8.9267 16.9888C7.9086 16.5629 6.97455 16.5444 5.90041 16.9888C4.55539 17.5628 3.84552 17.3961 3.04224 16.6647C-1.51587 12.0079 -0.843365 4.91621 4.33122 4.65699C5.59217 4.72179 6.47017 5.34208 7.20806 5.39763C8.31023 5.17544 9.3657 4.53663 10.5426 4.61995C11.953 4.73105 13.0178 5.28654 13.7183 6.28641C10.8041 8.01767 11.4953 11.8227 14.1667 12.8874C13.6343 14.2761 12.9431 15.6556 11.7942 16.674L11.8035 16.6647ZM7.11466 4.60144C6.97455 2.53688 8.66517 0.833394 10.608 0.666748C10.8788 3.05534 8.42232 4.83289 7.11466 4.60144Z" fill="white"/>
</svg>
