<svg width="17" height="18" viewBox="0 0 17 18" fill="none" xmlns="http://www.w3.org/2000/svg">
<path d="M16.6706 7.368H15.9993V7.33342H8.49935V10.6667H13.2089C12.5219 12.6072 10.6756 14.0001 8.49935 14.0001C5.7381 14.0001 3.49935 11.7613 3.49935 9.00008C3.49935 6.23883 5.7381 4.00008 8.49935 4.00008C9.77393 4.00008 10.9335 4.48091 11.8164 5.26633L14.1735 2.90925C12.6852 1.52216 10.6943 0.666748 8.49935 0.666748C3.89727 0.666748 0.166016 4.398 0.166016 9.00008C0.166016 13.6022 3.89727 17.3334 8.49935 17.3334C13.1014 17.3334 16.8327 13.6022 16.8327 9.00008C16.8327 8.44133 16.7752 7.89592 16.6706 7.368Z" fill="#FFC107"/>
<path d="M1.12685 5.12133L3.86477 7.12925C4.6056 5.29508 6.39977 4.00008 8.49935 4.00008C9.77393 4.00008 10.9335 4.48091 11.8164 5.26633L14.1735 2.90925C12.6852 1.52216 10.6943 0.666748 8.49935 0.666748C5.29852 0.666748 2.52268 2.47383 1.12685 5.12133Z" fill="#FF3D00"/>
<path d="M8.49935 17.3334C10.6518 17.3334 12.6077 16.5097 14.0864 15.1701L11.5073 12.9876C10.6425 13.6452 9.58579 14.0009 8.49935 14.0001C6.33185 14.0001 4.49143 12.618 3.7981 10.6892L1.0806 12.783C2.45977 15.4817 5.2606 17.3334 8.49935 17.3334Z" fill="#4CAF50"/>
<path d="M16.6706 7.368H15.9993V7.33342H8.49935V10.6667H13.2089C12.8803 11.5903 12.2882 12.3972 11.506 12.988L11.5073 12.9876L14.0864 15.1701C13.9039 15.3359 16.8327 13.1667 16.8327 9.00008C16.8327 8.44133 16.7752 7.89592 16.6706 7.368Z" fill="#1976D2"/>
</svg>
