<svg width="98" height="47" viewBox="0 0 98 47" fill="none" xmlns="http://www.w3.org/2000/svg">
<path d="M51.851 0.0663166C51.0063 0.281986 49.281 1.10872 48.3104 1.75574C47.0164 2.63639 45.0215 4.61337 44.2307 5.78159C43.8892 6.26685 43.5837 6.71616 43.5657 6.75211C43.5297 6.78805 43.2601 6.6263 42.9366 6.39266C42.2177 5.88943 40.4744 5.17052 39.9532 5.15255C39.414 5.15255 38.3177 6.44658 37.5449 8.04613C35.9633 11.2632 35.5859 15.2531 36.5564 18.7218C37.2393 21.1661 38.1559 22.9993 39.2523 24.1675C40.7799 25.803 42.1638 26.2703 43.7634 25.7132C45.7224 25.0482 45.7583 25.0482 46.6929 25.9648C47.1602 26.4321 47.951 27.0072 48.4362 27.2588C48.9395 27.5104 49.7662 27.9777 50.3054 28.2832C52.2105 29.4335 54.3672 28.9482 56.434 26.9173C58.1953 25.192 60.0285 21.9928 60.6935 19.5306C61.0709 18.0568 61.1249 13.7794 60.7834 12.3955C60.5318 11.4789 60.5318 11.4609 60.1184 11.7305C59.723 11.9821 59.705 11.9641 59.3096 11.1734C58.9502 10.4185 58.8783 10.3646 58.1953 10.3646C57.4944 10.3646 57.4944 10.3466 57.6022 9.84339L57.7101 9.32218L56.9552 9.48394C56.5419 9.59177 56.1465 9.69961 56.0746 9.73555C56.0027 9.78947 55.8769 8.99868 55.805 7.99221C55.6432 5.7097 55.176 3.82258 54.3672 2.18708C53.3967 0.228069 52.9114 -0.185299 51.851 0.0663166ZM50.8985 1.95343C50.7188 2.27694 50.3773 2.85206 50.1616 3.22949C49.7123 3.98433 49.7662 4.48757 50.3234 4.3977C50.539 4.36176 50.9883 3.80461 51.5275 2.92395C51.9948 2.13316 52.4801 1.46818 52.5879 1.43223C52.6957 1.39629 52.9474 1.62993 53.1451 1.95343C54.1695 3.69677 54.8165 6.35671 54.8165 8.76503V10.1849L53.9358 10.6342C51.222 12.0001 49.2091 13.9232 47.5017 16.7449C47.0703 17.4817 46.6749 18.0928 46.639 18.0928C46.603 18.0928 46.603 17.949 46.639 17.7693C46.6749 17.6075 46.8367 16.6909 46.9984 15.7564C47.3579 13.6895 47.8431 11.7305 48.562 9.50191C49.0293 8.08208 49.0653 7.77654 48.8676 7.56087C48.7238 7.41709 48.5261 7.38115 48.3823 7.47101C47.8431 7.81249 46.2256 13.6715 45.8122 16.7808C45.6685 17.985 45.5247 18.4522 45.345 18.4522C44.8058 18.4522 43.386 17.5536 43.0804 17.0324C42.0021 15.1992 42.4873 11.3351 44.2486 7.7406C45.309 5.56592 47.6454 3.17557 49.928 1.93546C51.222 1.23453 51.3298 1.2525 50.8985 1.95343ZM41.373 6.68022C41.8942 6.93183 42.4873 7.25534 42.685 7.41709C43.0265 7.66871 43.0265 7.70465 42.721 8.53139C41.8223 10.8678 41.4809 12.4314 41.4809 14.2287C41.4629 17.2121 42.3076 18.5601 44.644 19.3509C45.291 19.5665 45.8662 19.8002 45.9021 19.8721C45.9381 19.926 45.8662 20.4652 45.7224 21.0583C45.5786 21.6514 45.4887 22.568 45.5067 23.1071C45.5427 24.2035 45.5606 24.1855 43.8173 24.6528C42.1638 25.0841 41.5168 24.9403 40.3486 23.826C39.1983 22.7477 38.3177 21.1302 37.6347 18.8117C37.1674 17.284 37.1135 16.8347 37.1315 14.678C37.1315 12.4314 37.2753 11.389 37.7605 10.1489C37.9582 9.66366 38.084 9.60975 39.6836 9.3761C40.6362 9.23232 41.1214 8.81895 40.744 8.44153C40.5463 8.24383 40.3306 8.22586 39.7016 8.36964C38.2099 8.71112 38.1919 8.67517 39.1265 7.23737C39.5219 6.64427 39.9352 6.2309 40.1149 6.2309C40.2947 6.2309 40.8518 6.4286 41.373 6.68022ZM56.0746 11.0296C56.0746 11.1194 55.5534 12.737 54.9064 14.66C54.2593 16.5831 53.7561 18.1647 53.7921 18.1827C53.81 18.2006 55.158 17.1402 56.7755 15.8282C58.393 14.4983 59.7949 13.4738 59.9027 13.5457C60.0106 13.6176 60.0465 14.5881 59.9746 16.2776C59.9027 18.5601 59.8129 19.0813 59.3815 20.2495C58.4829 22.6399 56.7935 25.3357 55.4276 26.5219C54.3852 27.4385 52.9474 28.0496 52.1206 27.9058C51.4197 27.798 48.4902 26.1984 47.5017 25.3717C46.0459 24.1675 46.2795 21.3458 48.1127 17.9131C49.6943 14.9656 51.5994 13.0425 54.3852 11.6227C55.823 10.8858 56.0746 10.7959 56.0746 11.0296ZM58.5009 11.8024C58.6447 12.09 58.7705 12.4314 58.7705 12.5752C58.7705 12.7729 56.0926 15.1093 55.9667 15.0015C55.9488 14.9656 56.1644 14.1927 56.47 13.2761C56.8654 12.0181 57.099 11.5508 57.4045 11.4429C58.0336 11.1913 58.2133 11.2452 58.5009 11.8024Z" fill="#092705"/>
<path d="M51.8332 14.8218C50.2157 15.9901 48.5981 18.4523 48.2027 20.3394C47.8612 21.9749 47.8433 22.2445 48.1308 22.5141C48.5262 22.9275 48.7958 22.5321 49.0295 21.1482C49.4069 19.0813 50.8267 16.8527 52.7498 15.4149C53.1632 15.0914 53.235 14.9477 53.0913 14.732C52.8037 14.2647 52.588 14.2827 51.8332 14.8218Z" fill="#092705"/>
<path d="M4.583 32.9561C4.67287 33.1359 4.76273 34.6276 4.81665 36.281L4.88854 39.2645L4.09774 39.3903C3.21709 39.5161 1.25808 39.2285 0.503232 38.8511C0.0359451 38.6175 0 38.6355 0 39.0129C0 39.3723 0.14378 39.4622 1.04241 39.6599C1.59956 39.7857 2.69588 39.8935 3.48668 39.8935L4.88854 39.9115L4.81665 42.9668C4.76273 44.6563 4.67287 46.1839 4.583 46.3457C4.47517 46.6332 4.56503 46.6692 5.26596 46.6692H6.0927L5.96689 46.0042C5.895 45.6268 5.84108 44.0632 5.84108 42.5355V39.7498L7.36875 39.2285C9.43559 38.5276 11.8619 38.4557 13.1739 39.0668L14.0545 39.4802L13.9827 43.0747L13.9287 46.6692H14.6836H15.4384L15.2587 46.0941C15.1688 45.7706 15.097 42.877 15.097 39.6599C15.097 36.4428 15.1688 33.5492 15.2587 33.2257L15.4384 32.6506H14.6836H13.9287L14.0006 35.7239C14.0545 38.6714 14.0366 38.8152 13.731 38.6714C11.9338 37.9166 9.65127 37.8986 7.31483 38.6534C6.11067 39.0309 5.895 39.0668 5.80514 38.8332C5.66136 38.4737 5.85905 33.3695 6.02081 32.9561C6.12864 32.6865 6.03878 32.6506 5.30191 32.6506C4.56503 32.6506 4.47517 32.6865 4.583 32.9561Z" fill="#092705"/>
<path d="M22.6447 37.2695C19.9488 43.3982 18.7447 45.9503 18.3852 46.3457C18.1156 46.6512 18.1336 46.6692 18.9244 46.6692C19.7691 46.6692 19.7691 46.6692 19.7691 46.0401C19.7691 45.6987 20.1286 44.5844 20.5959 43.524L21.4406 41.6369H24.6037H27.7669L28.4678 43.3083C28.8453 44.2069 29.2047 45.3392 29.2586 45.8245L29.3485 46.6692H30.2112C30.6964 46.6692 31.0918 46.6332 31.0918 46.5973C31.0918 46.5434 30.9121 46.2019 30.6964 45.8425C30.4808 45.483 29.1148 42.3917 27.677 38.9769C26.2213 35.5442 24.9632 32.7405 24.8733 32.7045C24.7655 32.6686 23.777 34.7354 22.6447 37.2695ZM26.2932 38.1682L27.4614 40.918H24.6217H21.7641L22.0876 40.1452C22.3751 39.4802 23.0401 38.0244 24.2982 35.1668L24.6577 34.358L24.8913 34.8972C25.0351 35.1847 25.6641 36.6764 26.2932 38.1682Z" fill="#092705"/>
<path d="M36.0523 32.9202C34.1292 33.6032 33.2306 35.7599 34.2011 37.3594C34.7223 38.2401 35.4592 38.7793 37.6518 39.8756C40.4016 41.2595 41.3182 42.4816 40.797 44.0452C40.0422 46.3457 36.232 46.8489 34.4347 44.872L33.8237 44.189L33.7158 44.7282C33.5361 45.6627 33.59 45.7886 34.4707 46.1839C35.1357 46.4895 35.6569 46.5614 37.0228 46.5793C38.9638 46.5793 39.8265 46.3457 40.7251 45.5369C41.7855 44.6203 42.1989 43.3802 41.8754 42.1581C41.5519 41.0079 40.9228 40.4507 38.5145 39.2645C35.3693 37.7368 34.3628 36.6225 34.7582 35.0949C35.1716 33.4055 38.155 32.6506 40.2219 33.711C41.1565 34.1963 41.1924 34.1783 41.1205 33.6032C41.0846 33.2078 40.9228 33.064 40.3477 32.9022C39.3592 32.5967 36.9149 32.6147 36.0523 32.9202Z" fill="#092705"/>
<path d="M47.3582 32.9381C45.5789 33.5851 44.6803 35.4004 45.3632 37.0179C45.7406 37.9345 46.6213 38.6534 48.7421 39.7497C51.0785 40.9719 51.8693 41.6009 52.1389 42.5355C52.4444 43.5779 52.2287 44.3867 51.402 45.1056C50.3057 46.112 48.9757 46.3636 47.3582 45.8784C46.4595 45.6088 45.3093 44.6562 45.2734 44.171C45.2374 43.8115 44.9858 44.818 44.9498 45.3751C44.8959 46.3636 48.3287 47.0107 50.3776 46.4176C52.4803 45.8065 53.6845 44.0092 53.1993 42.194C52.8937 41.0258 52.2467 40.4507 50.1619 39.4442C47.6457 38.2221 46.801 37.629 46.3697 36.7843C45.7766 35.616 45.9563 34.7354 46.9987 33.8727C47.9513 33.0819 50.1619 33.01 51.5458 33.711C52.4803 34.1962 52.5163 34.1782 52.4444 33.6031C52.4085 33.2077 52.2467 33.0639 51.6716 32.9022C50.6831 32.5967 48.2388 32.6146 47.3582 32.9381Z" fill="#092705"/>
<path d="M59.1297 38.8511C57.62 42.2659 56.1463 45.4291 55.8767 45.8784L55.3555 46.6692H56.0564C56.7753 46.6692 56.973 46.4715 56.973 45.7346C56.973 45.5369 57.3504 44.5305 57.7997 43.488L58.6444 41.6369L61.8076 41.6728L64.9528 41.7267L65.7256 43.524C66.157 44.5484 66.4985 45.6088 66.4985 45.9862V46.6692H67.3971C67.9003 46.6692 68.2957 46.6332 68.2957 46.5973C68.2957 46.5614 68.08 46.148 67.8105 45.6627C67.5409 45.1775 66.1749 42.0682 64.7731 38.7613C63.3712 35.4543 62.1491 32.7225 62.0592 32.7045C61.9514 32.6686 60.6394 35.4363 59.1297 38.8511ZM63.2634 37.647C63.9823 39.3544 64.5394 40.7922 64.4855 40.8281C64.4316 40.882 63.1735 40.9 61.6818 40.882L58.968 40.8281L60.0463 38.4018C60.6394 37.0718 61.2864 35.6161 61.4841 35.1847C61.6638 34.7534 61.8615 34.4299 61.8975 34.4658C61.9334 34.5018 62.5445 35.9396 63.2634 37.647Z" fill="#092705"/>
<path d="M71.3688 33.3156C71.4586 33.693 71.5305 36.5506 71.5305 39.6599C71.5305 42.7691 71.4586 45.6268 71.3688 45.9862L71.207 46.6692H73.5794C77.6951 46.6512 79.3666 46.2199 81.0919 44.7102C83.8957 42.23 84.1473 36.6764 81.5592 34.34C80.1034 33.028 78.4679 32.6686 74.0287 32.6506H71.207L71.3688 33.3156ZM78.45 33.5672C79.9417 34.0165 81.1818 35.1128 81.7929 36.4787C82.4039 37.8447 82.4039 40.7203 81.7929 42.2659C81.2177 43.7037 79.8698 45.0337 78.45 45.5908C77.2458 46.0401 75.161 46.2378 73.6154 46.0581L72.6089 45.9323V39.6599V33.3875L73.202 33.3156C74.9992 33.0999 77.2818 33.2077 78.45 33.5672Z" fill="#092705"/>
<path d="M87.0762 39.6599V46.6692H87.813H88.5679L88.4061 45.8964C88.3163 45.483 88.2624 43.8655 88.2803 42.3198L88.3343 39.4981L91.7131 43.0926L95.0919 46.6692H96.1164H97.1408L96.2422 45.9323C95.7569 45.5189 93.9776 43.8116 92.3062 42.1221L89.2688 39.0668L91.6771 36.6944C93.0071 35.4004 94.5348 33.9626 95.074 33.4953L96.0625 32.6506H95.2537C94.5348 32.6506 94.391 32.7225 94.0495 33.2437C93.8339 33.5672 92.45 34.987 90.9942 36.4248L88.3343 39.0309L88.2803 36.6046C88.2624 35.2746 88.2983 33.8368 88.3882 33.4234L88.5679 32.6506H87.813H87.0762V39.6599Z" fill="#092705"/>
</svg>
