<svg width="57" height="36" viewBox="0 0 57 36" fill="none" xmlns="http://www.w3.org/2000/svg">
<path d="M16.3233 27.0827C16.2581 26.6259 16.3233 26.0712 16.4538 25.8102C16.5517 25.5817 16.8454 25.4839 17.1064 25.5817C17.3675 25.6796 18.7706 25.7775 20.2716 25.7775C22.523 25.7449 23.1104 25.8754 24.0566 26.4954C24.7092 26.9522 25.2966 27.6374 25.4597 28.2248C25.5902 28.7469 25.5576 29.7258 25.3945 30.3457C25.2313 30.9657 24.6766 31.8467 24.1872 32.3035C23.6977 32.7603 22.9472 33.315 22.5557 33.5108C22.1315 33.7392 20.8263 34.0982 19.619 34.2939C18.0527 34.5224 17.1391 34.5224 16.5191 34.2939C15.8012 34.0003 15.6055 33.7392 15.6055 32.9561C15.6055 32.1404 15.7034 32.0098 16.1928 32.2056C16.4865 32.3361 17.6285 32.4667 18.7053 32.5319C19.9779 32.6298 21.022 32.4993 21.642 32.2056C22.1967 31.9446 22.882 31.3246 23.2083 30.8678C23.6324 30.2478 23.6651 29.8563 23.4367 29.3668C23.2409 29.0079 22.7188 28.6163 22.2294 28.4858C21.7073 28.3879 20.2063 28.1921 18.8685 28.0943C16.5517 27.8985 16.4212 27.8658 16.3233 27.0827Z" fill="#2BC51B"/>
<path d="M27.1892 28.8773C27.4829 27.0827 28.0049 23.9502 28.3639 21.9598L29.0491 18.2726H30.1585C30.9743 18.2726 31.3006 18.4357 31.3658 18.8273C31.3984 19.1536 31.0395 21.764 30.5501 24.6354C30.0606 27.5069 29.6364 30.2478 29.6364 30.7372C29.6364 31.3572 29.8975 31.814 30.4522 32.1403C30.909 32.4014 31.4963 32.6298 31.7574 32.6298C32.0837 32.6298 32.3447 32.0751 32.5731 30.9004C32.7363 29.9867 32.9973 28.1921 33.3889 24.6354L34.4657 24.5375C35.2814 24.5049 35.5751 24.6354 35.7709 25.1575C35.934 25.647 36.1624 25.7775 36.6519 25.6143C37.0108 25.5164 37.8266 25.2554 38.4465 25.0596C39.0665 24.8638 40.1433 24.8312 40.8285 24.9291C41.6116 25.0596 42.3295 25.4512 42.8516 26.1038C43.4389 26.789 43.6673 27.4742 43.6673 28.3879C43.6673 29.1057 43.5368 30.0194 43.3737 30.4109C43.1779 30.8678 43.1779 31.3572 43.341 31.6509C43.5694 32.0098 44.1894 32.1403 45.5272 32.1077C46.9303 32.0751 48.0071 31.814 49.6386 31.0309C50.8459 30.4762 51.8248 29.9215 51.8248 29.7583C51.8248 29.6278 51.368 29.2689 50.7807 28.9752C50.1933 28.6489 49.0839 28.0289 48.3334 27.5721C47.5503 27.1153 46.5714 26.7564 46.1146 26.7564C45.6577 26.7564 45.2988 26.5606 45.2988 26.3322C45.2988 26.1364 45.5272 25.6143 45.7883 25.1901C46.0493 24.7986 46.604 24.4723 47.0282 24.4723C47.4198 24.4723 49.5733 25.4185 51.8248 26.5606C54.1415 27.7679 55.9362 28.8773 56.0015 29.171C56.0341 29.4647 55.9362 29.9867 55.7404 30.3457C55.5446 30.7046 55.1204 30.9983 54.7615 30.9983C54.4026 30.9983 52.7385 31.6835 51.107 32.4993C49.1492 33.4782 47.485 34.0655 46.4409 34.1634C45.5599 34.2613 44.4178 34.1634 43.9284 33.9676C43.4063 33.7718 42.8516 33.2824 42.2969 32.1403L41.0896 32.8908C40.437 33.315 39.3928 33.8045 38.7728 34.0002C38.1529 34.1634 36.2929 34.3918 34.6941 34.4897C32.3773 34.6202 31.529 34.5549 30.7132 34.1308C30.1259 33.8371 29.4733 33.3476 29.2775 33.0213C28.9186 32.4993 28.8533 32.4993 28.1354 33.1845C27.6786 33.6413 26.9608 33.935 25.3945 33.935L26.0471 33.0213C26.4387 32.4666 26.8629 30.9004 27.1892 28.8773Z" fill="#2BC51B"/>
<path d="M35.7048 28.2249C35.77 27.866 36.3247 27.3113 36.8794 27.0176C37.4668 26.6913 38.3478 26.4303 38.8699 26.4303C39.4572 26.4303 39.9793 26.724 40.4035 27.3113C40.795 27.8334 41.0887 28.4534 41.0887 28.7144C41.0887 28.9754 40.7298 29.6933 40.3382 30.3133C39.914 30.9332 39.1309 31.6837 38.6088 31.9774C38.0867 32.2711 37.0426 32.63 35.0195 33.0216L35.2806 30.9659C35.4437 29.8238 35.6069 28.5839 35.7048 28.2249Z" fill="white"/>
<path d="M12.0465 29.5301C12.5359 28.6164 12.9601 26.6913 13.4496 23.2325L14.1348 18.2401L15.2768 18.338C16.2231 18.4033 16.4515 18.5664 16.5168 19.2516C16.582 19.7085 16.321 21.8294 15.9621 23.983C15.5705 26.1366 15.0484 28.6491 14.7874 29.5301C14.5263 30.4764 13.8085 31.7489 13.0906 32.5647C12.4054 33.3478 11.2633 34.1962 10.5455 34.4898C9.82763 34.7835 8.35928 35.0119 7.28249 35.0119C6.04255 35.0119 4.9005 34.7835 4.18264 34.4246C3.56267 34.0983 2.71429 33.4457 2.2901 32.9889C1.89854 32.532 1.40909 31.5531 1.21331 30.8353C1.01753 30.1174 0.984901 29.0733 1.11542 28.5512C1.21331 28.0291 1.50698 27.2134 1.73539 26.7565C1.9638 26.2997 2.42062 25.7124 2.74692 25.4187C3.10585 25.125 3.85634 24.7335 4.41105 24.5051C5.16154 24.2767 5.74888 24.244 6.30359 24.4724C6.76041 24.6682 7.1846 25.0924 7.28249 25.4513C7.38038 25.8103 7.64142 26.1039 7.8372 26.1039C8.09824 26.1039 8.22876 25.7776 8.13087 25.1903C8.06561 24.6682 8.26139 24.0809 8.58769 23.7546C8.97925 23.3304 9.63185 23.1672 10.9044 23.1672C12.4054 23.1672 12.6664 23.2651 12.5685 23.7219C12.5359 24.0482 12.2749 24.3419 12.0138 24.3745C11.7528 24.4072 10.937 24.5377 10.2192 24.6356C8.97925 24.8314 8.94662 24.8966 9.56659 25.3208C9.92552 25.5819 10.6107 25.7776 11.1002 25.7776C11.8507 25.7776 12.0138 25.9082 11.9159 26.5281C11.8507 27.1807 11.6549 27.246 9.89289 27.3439C8.58769 27.4091 7.8372 27.6049 7.67405 27.9312C7.54353 28.1923 7.31512 28.388 7.11934 28.388C6.92356 28.388 6.49937 28.0291 6.14044 27.5723C5.78151 27.1155 5.19417 26.7565 4.83524 26.7565C4.47631 26.7565 3.9216 26.8544 3.62793 27.0176C3.33426 27.1481 2.91007 27.7028 2.68166 28.2249C2.45325 28.8449 2.38799 29.4975 2.58377 30.0195C2.74692 30.4764 3.49741 31.1942 4.2479 31.6184C5.16154 32.1405 6.17307 32.4015 7.11934 32.4015C8.06561 32.4015 9.07714 32.1405 9.95815 31.6184C10.8065 31.129 11.6223 30.3132 12.0465 29.5301Z" fill="#2BC51B"/>
<path d="M2.87997 18.3378C3.49994 18.2726 4.08728 18.1747 4.15254 18.0768C4.2178 18.0115 4.41358 17.9463 4.51147 17.9463C4.64199 17.9463 4.70725 18.0768 4.64199 18.2726C4.57673 18.4684 4.11991 18.6315 3.59783 18.6315C2.78208 18.6641 2.81471 18.6968 3.85887 18.9578C4.47884 19.0883 5.39248 19.3494 5.91456 19.4799C6.40401 19.6104 6.76294 19.8715 6.69768 20.0672C6.63242 20.263 6.01245 20.5241 5.29459 20.6546C4.60936 20.7851 3.5652 20.8177 3.04312 20.7198C2.48841 20.6219 1.73792 20.3283 1.31373 20.0672C0.628503 19.6104 0.628503 19.5452 1.15058 18.9904C1.47688 18.6968 2.26 18.3705 2.87997 18.3378Z" fill="#2BC51B"/>
<path d="M0.170903 17.1308C0.105643 17.6855 0.040383 17.2287 0.00775302 16.1519C-0.024877 14.651 0.040383 14.3573 0.301423 14.912C0.464573 15.3362 0.725613 15.7277 0.921393 15.8256C1.11717 15.9235 1.24769 16.3151 1.24769 16.7066C1.21506 17.4571 1.21506 17.4571 0.758243 16.8045C0.301423 16.1846 0.301423 16.1846 0.170903 17.1308Z" fill="#2BC51B"/>
<path d="M1.73619 12.7255C1.86671 12.2687 2.22564 11.5835 2.51931 11.1919C2.81298 10.8003 3.13928 10.4414 3.2698 10.4414C3.43295 10.4414 3.62873 10.833 3.72662 11.3224C3.85714 11.8445 3.88977 12.9865 3.82451 13.9328C3.69399 15.5643 3.72662 15.5969 4.31396 15.0749C4.70552 14.7159 5.5539 14.4875 6.76121 14.4549C8.4906 14.3896 8.52323 14.4223 7.28329 14.6507C6.56543 14.8138 5.5539 15.1728 4.02029 16.0211L5.16234 15.7601C5.78231 15.6296 6.95699 15.4991 7.77274 15.5317C8.62112 15.5317 9.99158 15.8906 10.9705 16.3474C11.9167 16.7716 12.6999 17.2284 12.6672 17.359C12.6672 17.5221 12.3083 17.7505 11.8515 17.9463C11.3947 18.1095 10.4484 18.2726 9.73054 18.2726C9.01268 18.2726 7.57696 17.9137 6.5328 17.4569C5.42338 16.9674 4.41185 16.7064 4.02029 16.8369C3.66136 16.9348 3.10665 17.2937 2.74772 17.5874C2.25827 18.0116 2.16038 18.0442 2.25827 17.62C2.32353 17.359 2.16038 16.3148 1.93197 15.3359C1.70356 14.357 1.60567 13.1823 1.73619 12.7255Z" fill="#2BC51B"/>
<path d="M40.8941 6.52589C40.0784 6.52589 39.4258 6.39537 39.4258 6.19959C39.4258 6.00381 40.0784 5.87329 40.8941 5.87329C41.7099 5.87329 42.3625 6.00381 42.3625 6.19959C42.3625 6.39537 41.7099 6.52589 40.8941 6.52589Z" fill="#2BC51B"/>
<path d="M5.29302 8.32068C5.39091 7.76597 6.01088 6.8197 6.794 6.13447V6.10184C7.51186 5.44924 8.22972 4.89453 8.39287 4.89453C8.55602 4.89453 8.58865 5.15557 8.52339 5.44924C8.4255 5.77554 8.22972 6.98285 8.0992 8.15753C7.96868 9.33221 7.67501 10.67 7.47923 11.1595C7.28345 11.6816 7.1203 12.171 7.1203 12.3015C7.08767 12.4647 7.31608 12.3342 7.60975 12.0731C7.90342 11.8121 8.13183 11.7142 8.0992 11.91C8.0992 12.1058 8.98021 12.2363 10.1549 12.2363C11.7864 12.2363 12.5695 12.4321 14.0705 13.2152C15.082 13.7373 15.9304 14.292 15.9304 14.4225C15.9304 14.5856 15.3757 14.8467 14.7231 15.0425C14.0379 15.2382 12.8958 15.3361 12.1779 15.2382C11.4601 15.1077 10.2528 14.5856 9.50229 14.0309C8.71917 13.5088 7.80553 13.052 7.4466 13.052C7.08767 13.052 6.72874 13.1825 6.63085 13.3783C6.53296 13.5741 6.33718 13.7046 6.1414 13.7046C5.94562 13.7046 5.65195 12.7257 5.45617 11.4858C5.26039 10.2785 5.19513 8.84276 5.29302 8.32068Z" fill="#2BC51B"/>
<path d="M9.89596 4.89444C10.2549 4.50288 11.0706 3.91554 11.6906 3.55662C12.3106 3.23032 12.9305 2.96928 13.0611 2.93665C13.2242 2.93665 13.3221 2.96928 13.3221 3.00191C13.3221 3.06717 13.0284 3.9808 12.6695 5.05759C12.2779 6.13438 11.6253 7.63536 11.2012 8.38585C10.7443 9.16897 10.3854 9.8542 10.3854 9.95209C10.3854 10.05 11.5927 10.0174 15.7694 9.72368L19.3587 12.3993L18.445 12.7256C17.9556 12.8888 16.944 13.0519 16.1935 13.0519C15.1494 13.0519 14.3336 12.7583 12.9958 11.9099C12.0169 11.2899 11.0054 10.7678 10.8096 10.7678C10.5812 10.7678 10.0265 10.8984 9.56966 11.0941C9.02582 11.3117 8.75391 11.3117 8.75391 11.0941C8.75391 10.8984 8.88443 10.7678 9.08021 10.7678C9.27599 10.7678 9.37388 9.75631 9.30862 8.19007C9.24336 6.00386 9.34125 5.51441 9.89596 4.89444Z" fill="#2BC51B"/>
<path d="M20.4996 1.92517C20.7933 1.50098 21.5111 0.881009 22.1311 0.58734C22.7511 0.26104 23.3711 0 23.5016 0C23.6647 0 23.6974 0.48945 23.5995 1.04416C23.5342 1.6315 23.3384 2.6104 23.2079 3.23037C23.0774 3.85034 22.5553 4.69872 21.1522 5.8734H21.968C22.49 5.8734 23.3058 5.38395 24.1542 4.53557C24.9373 3.81771 26.0793 2.87144 26.6993 2.44725C27.3193 2.02306 28.2329 1.59887 28.7224 1.50098C29.3315 1.37046 29.636 1.43572 29.636 1.69676C29.6686 1.92517 29.1792 2.64303 28.5919 3.263C28.0045 3.9156 27.0909 4.63346 26.5362 4.86187C25.753 5.18817 25.6552 5.31869 26.0467 5.57973C26.3078 5.74288 26.7646 5.8734 27.0256 5.8734C27.2867 5.84077 27.874 5.44921 28.3308 4.92713C28.7876 4.40505 29.636 3.75245 30.1907 3.45878C30.7781 3.16511 31.8549 2.83881 32.5727 2.67566C33.6495 2.47988 33.8779 2.54514 33.8779 2.9367C33.8779 3.19774 33.7148 3.65456 33.4864 3.98086C33.2579 4.27453 32.5401 4.82924 31.9201 5.18817C31.3001 5.57973 30.4844 5.8734 30.1255 5.90603C29.6904 5.90603 29.8535 6.0583 30.6149 6.36285C31.5938 6.72178 31.8549 6.72178 32.5727 6.26496C33.0295 5.97129 33.9105 5.48184 34.5305 5.18817C35.1505 4.8945 36.4883 4.47031 37.4672 4.2419C38.4461 4.04612 39.4903 3.94823 39.7513 4.04612C40.1429 4.20927 40.0776 4.40505 39.425 5.05765C38.9682 5.51447 38.0219 6.03655 37.3041 6.23233C36.5862 6.42811 35.1831 6.68915 34.2042 6.8523C32.7359 7.11334 33.0622 7.14597 39.5882 6.91756L35.02 7.70068L37.4672 8.09224C38.805 8.32065 40.6649 8.90798 41.6112 9.39743C42.5249 9.88688 43.8953 10.8005 44.6784 11.4205C45.4289 12.0405 46.2773 12.7583 46.571 12.9867C46.9952 13.3457 46.7341 13.3783 44.809 13.2478C43.3732 13.1173 42.0028 12.791 41.1218 12.3341C40.3713 11.9099 38.5766 10.8332 37.1409 9.95214C35.6726 9.0385 34.4 8.41854 34.2695 8.58169C34.139 8.7122 34.3674 9.3648 34.7589 10.05C35.1505 10.7026 35.6073 12.1057 35.7378 13.1499C35.9662 14.7161 35.9336 15.0098 35.5094 15.0424C35.2484 15.0424 34.4979 14.4225 33.8779 13.7046C33.2579 12.9541 32.3443 11.5836 31.8549 10.67C31.3654 9.72373 30.9412 8.74483 30.9412 8.4838C30.9412 8.22276 30.7128 7.66805 30.4518 7.24386C30.1255 6.78704 29.636 6.526 28.1677 6.526L29.2118 7.34175C29.8318 7.79857 30.3539 8.54906 30.4518 9.03851C30.5497 9.56059 31.137 10.8005 31.757 11.8121C32.3769 12.8562 32.8011 13.7699 32.638 13.8351C32.5075 13.933 31.8875 13.8351 31.2675 13.672C30.6475 13.5088 29.7992 13.1499 29.375 12.8888C28.9834 12.6278 28.4613 12.0731 28.2003 11.6489C27.9393 11.2573 27.5151 10.1806 27.2214 9.29954C26.9277 8.38591 26.4383 7.40701 26.1446 7.11334C25.8183 6.81967 25.0678 6.42811 24.4805 6.29759C23.6974 6.10181 23.4363 6.13444 23.4363 6.42811C23.4363 6.65652 23.5668 6.8523 23.7626 6.8523C23.9584 6.8523 24.4152 7.21123 24.8068 7.63542C25.231 8.09224 25.8183 9.29955 26.1446 10.3437C26.4709 11.3879 26.6667 12.2689 26.5688 12.3015C26.4383 12.3668 25.8183 12.1057 25.1331 11.7794C24.4805 11.4205 23.6974 10.8332 23.4363 10.4416C23.1753 10.05 22.5553 9.13639 22.0332 8.45117C21.5438 7.73331 20.9564 7.11334 20.728 7.01545C20.5323 6.91756 19.5207 7.04808 18.5418 7.30912C17.0082 7.70068 16.9103 7.76594 17.7913 7.79857C18.3787 7.8312 19.1944 7.96172 19.586 8.09224C20.0102 8.25539 20.728 9.07113 21.2175 9.88688C21.7396 10.7353 22.3922 11.551 22.6858 11.7142C23.1753 11.9426 23.0448 12.0405 22.0332 12.2036C21.2827 12.3341 20.4996 12.2362 19.9123 11.9426C19.4228 11.7142 18.4439 10.9637 17.7261 10.3111C17.0082 9.65847 16.0619 9.0385 15.6051 8.90798C15.1483 8.81009 14.3652 8.81009 13.8105 8.90798C13.2558 9.00587 12.5379 9.20166 12.179 9.33218C11.5916 9.59321 11.5916 9.52796 12.2769 8.64694C12.7011 8.09224 13.5494 6.59126 14.1694 5.28606C14.9852 3.52404 15.6378 2.67566 16.6493 1.9578C17.4324 1.40309 18.2482 0.978899 18.4439 0.978899C18.6723 0.978899 18.8681 1.3052 18.8681 1.69676C18.8681 2.12095 18.5745 3.03459 18.2482 3.75245C17.9219 4.47031 17.0408 5.61236 16.323 6.26496C15.5725 6.95019 15.1483 7.5049 15.3441 7.5049C15.5725 7.47227 16.2904 7.21123 16.9103 6.91756C17.7261 6.526 18.346 5.80814 19.0313 4.53557C19.586 3.49141 20.2386 2.34936 20.4996 1.92517Z" fill="#2BC51B"/>
</svg>
